HIERARCHY
ROOT Hips
{
	OFFSET 0.000000 121.760803 0.000000
	CHANNELS 6 Xposition Yposition Zposition Xrotation Yrotation Zrotation 
	JOINT Spine
	{
		OFFSET 0.072000 7.257294 -0.789700
		CHANNELS 3 Xrotation Yrotation Zrotation
		JOINT Spine1
		{
			OFFSET 0.000000 12.508769 -0.658067
			CHANNELS 3 Xrotation Yrotation Zrotation
			JOINT Spine1_split
			{
				OFFSET 0.000000 12.508769 -0.658067
				CHANNELS 3 Xrotation Yrotation Zrotation
				JOINT Spine2
				{
					OFFSET 0.000000 12.508769 -0.658067
					CHANNELS 3 Xrotation Yrotation Zrotation
					JOINT Neck
					{
						OFFSET 0.000000 14.033295 7.520400
						CHANNELS 3 Xrotation Yrotation Zrotation
						JOINT Head
						{
							OFFSET 0.000000 8.198502 5.703100
							CHANNELS 3 Xrotation Yrotation Zrotation
							JOINT HeadTop_End
							{
								OFFSET 0.000000 17.760803 13.332701
								CHANNELS 3 Xrotation Yrotation Zrotation
								End Site
								{
									OFFSET 0.000000 0.000000 0.000000
								}
							}
						}
					}
					JOINT LeftShoulder
					{
						OFFSET 6.292450 5.785301 -0.669000
						CHANNELS 3 Xrotation Yrotation Zrotation
						JOINT LeftShoulder_split
						{
							OFFSET 6.292450 5.785301 -0.669000
							CHANNELS 3 Xrotation Yrotation Zrotation
							JOINT LeftArm
							{
								OFFSET 13.907140 -6.093903 1.965100
								CHANNELS 3 Xrotation Yrotation Zrotation
								JOINT LeftForeArm
								{
									OFFSET 34.140198 0.000000 0.000000
									CHANNELS 3 Xrotation Yrotation Zrotation
									JOINT LeftHand
									{
										OFFSET 40.960209 0.000000 0.000000
										CHANNELS 3 Xrotation Yrotation Zrotation
										JOINT LeftHandThumb1
										{
											OFFSET 10.006996 -7.170425 9.573125
											CHANNELS 3 Xrotation Yrotation Zrotation
											JOINT LeftHandThumb2
											{
												OFFSET 1.835007 -1.059448 1.059443
												CHANNELS 3 Xrotation Yrotation Zrotation
												JOINT LeftHandThumb3
												{
													OFFSET 2.112267 -1.219513 1.219518
													CHANNELS 3 Xrotation Yrotation Zrotation
													JOINT LeftHandThumb4
													{
														OFFSET 4.843811 -2.796570 2.796576
														CHANNELS 3 Xrotation Yrotation Zrotation
														End Site
														{
															OFFSET 0.000000 0.000000 0.000000
														}
													}
												}
											}
										}
										JOINT LeftHandIndex1
										{
											OFFSET 18.389847 -0.922348 4.596882
											CHANNELS 3 Xrotation Yrotation Zrotation
											JOINT LeftHandIndex2
											{
												OFFSET 4.711273 0.000000 0.000000
												CHANNELS 3 Xrotation Yrotation Zrotation
												JOINT LeftHandIndex3
												{
													OFFSET 2.886131 0.000000 0.000000
													CHANNELS 3 Xrotation Yrotation Zrotation
													JOINT LeftHandIndex4
													{
														OFFSET 6.145912 0.000000 0.000000
														CHANNELS 3 Xrotation Yrotation Zrotation
														End Site
														{
															OFFSET 0.000000 0.000000 0.000000
														}
													}
												}
											}
										}
										JOINT LeftHandMiddle1
										{
											OFFSET 18.013008 0.000000 0.000000
											CHANNELS 3 Xrotation Yrotation Zrotation
											JOINT LeftHandMiddle2
											{
												OFFSET 4.946693 0.000000 0.000000
												CHANNELS 3 Xrotation Yrotation Zrotation
												JOINT LeftHandMiddle3
												{
													OFFSET 3.342232 0.000000 0.000000
													CHANNELS 3 Xrotation Yrotation Zrotation
													JOINT LeftHandMiddle4
													{
														OFFSET 4.461754 0.000000 0.000000
														CHANNELS 3 Xrotation Yrotation Zrotation
														End Site
														{
															OFFSET 0.000000 0.000000 0.000000
														}
													}
												}
											}
										}
										JOINT LeftHandRing1
										{
											OFFSET 15.849892 -0.102921 -4.126150
											CHANNELS 3 Xrotation Yrotation Zrotation
											JOINT LeftHandRing2
											{
												OFFSET 3.527054 0.000000 0.000000
												CHANNELS 3 Xrotation Yrotation Zrotation
												JOINT LeftHandRing3
												{
													OFFSET 2.961098 0.000000 0.000000
													CHANNELS 3 Xrotation Yrotation Zrotation
													JOINT LeftHandRing4
													{
														OFFSET 4.927200 0.000000 0.000000
														CHANNELS 3 Xrotation Yrotation Zrotation
														End Site
														{
															OFFSET 0.000000 0.000000 0.000000
														}
													}
												}
											}
										}
										JOINT LeftHandPinky1
										{
											OFFSET 12.791824 -0.832031 -6.799156
											CHANNELS 3 Xrotation Yrotation Zrotation
											JOINT LeftHandPinky2
											{
												OFFSET 3.327133 0.000000 0.000000
												CHANNELS 3 Xrotation Yrotation Zrotation
												JOINT LeftHandPinky3
												{
													OFFSET 3.014900 0.000000 0.000000
													CHANNELS 3 Xrotation Yrotation Zrotation
													JOINT LeftHandPinky4
													{
														OFFSET 5.847786 0.000000 0.000000
														CHANNELS 3 Xrotation Yrotation Zrotation
														End Site
														{
															OFFSET 0.000000 0.000000 0.000000
														}
													}
												}
											}
										}
									}
								}
							}
						}
					}
					JOINT RightShoulder
					{
						OFFSET -6.292450 5.785301 -0.669000
						CHANNELS 3 Xrotation Yrotation Zrotation
						JOINT RightShoulder_split
						{
							OFFSET -6.292450 5.785301 -0.669000
							CHANNELS 3 Xrotation Yrotation Zrotation
							JOINT RightArm
							{
								OFFSET -13.907140 -6.093903 1.965100
								CHANNELS 3 Xrotation Yrotation Zrotation
								JOINT RightForeArm
								{
									OFFSET -34.140198 0.000000 0.000000
									CHANNELS 3 Xrotation Yrotation Zrotation
									JOINT RightHand
									{
										OFFSET -40.960209 0.000000 0.000000
										CHANNELS 3 Xrotation Yrotation Zrotation
										JOINT RightHandThumb1
										{
											OFFSET -10.007050 -7.170456 9.573117
											CHANNELS 3 Xrotation Yrotation Zrotation
											JOINT RightHandThumb2
											{
												OFFSET -1.835007 -1.059448 1.059443
												CHANNELS 3 Xrotation Yrotation Zrotation
												JOINT RightHandThumb3
												{
													OFFSET -2.112267 -1.219513 1.219518
													CHANNELS 3 Xrotation Yrotation Zrotation
													JOINT RightHandThumb4
													{
														OFFSET -4.843834 -2.796585 2.796590
														CHANNELS 3 Xrotation Yrotation Zrotation
														End Site
														{
															OFFSET 0.000000 0.000000 0.000000
														}
													}
												}
											}
										}
										JOINT RightHandIndex1
										{
											OFFSET -18.389870 -0.922424 4.596786
											CHANNELS 3 Xrotation Yrotation Zrotation
											JOINT RightHandIndex2
											{
												OFFSET -4.711273 0.000000 0.000000
												CHANNELS 3 Xrotation Yrotation Zrotation
												JOINT RightHandIndex3
												{
													OFFSET -2.886131 0.000000 0.000000
													CHANNELS 3 Xrotation Yrotation Zrotation
													JOINT RightHandIndex4
													{
														OFFSET -6.145920 0.000000 0.000000
														CHANNELS 3 Xrotation Yrotation Zrotation
														End Site
														{
															OFFSET 0.000000 0.000000 0.000000
														}
													}
												}
											}
										}
										JOINT RightHandMiddle1
										{
											OFFSET -18.013008 0.000000 0.000000
											CHANNELS 3 Xrotation Yrotation Zrotation
											JOINT RightHandMiddle2
											{
												OFFSET -4.946693 0.000000 0.000000
												CHANNELS 3 Xrotation Yrotation Zrotation
												JOINT RightHandMiddle3
												{
													OFFSET -3.342232 0.000000 0.000000
													CHANNELS 3 Xrotation Yrotation Zrotation
													JOINT RightHandMiddle4
													{
														OFFSET -4.461754 0.000000 0.000000
														CHANNELS 3 Xrotation Yrotation Zrotation
														End Site
														{
															OFFSET 0.000000 0.000000 0.000000
														}
													}
												}
											}
										}
										JOINT RightHandRing1
										{
											OFFSET -15.849876 -0.102936 -4.126237
											CHANNELS 3 Xrotation Yrotation Zrotation
											JOINT RightHandRing2
											{
												OFFSET -3.527054 0.000000 0.000000
												CHANNELS 3 Xrotation Yrotation Zrotation
												JOINT RightHandRing3
												{
													OFFSET -2.961098 0.000000 0.000000
													CHANNELS 3 Xrotation Yrotation Zrotation
													JOINT RightHandRing4
													{
														OFFSET -4.927200 0.000000 0.000000
														CHANNELS 3 Xrotation Yrotation Zrotation
														End Site
														{
															OFFSET 0.000000 0.000000 0.000000
														}
													}
												}
											}
										}
										JOINT RightHandPinky1
										{
											OFFSET -12.791786 -0.832077 -6.799222
											CHANNELS 3 Xrotation Yrotation Zrotation
											JOINT RightHandPinky2
											{
												OFFSET -3.327133 0.000000 0.000000
												CHANNELS 3 Xrotation Yrotation Zrotation
												JOINT RightHandPinky3
												{
													OFFSET -3.014900 0.000000 0.000000
													CHANNELS 3 Xrotation Yrotation Zrotation
													JOINT RightHandPinky4
													{
														OFFSET -5.847786 0.000000 0.000000
														CHANNELS 3 Xrotation Yrotation Zrotation
														End Site
														{
															OFFSET 0.000000 0.000000 0.000000
														}
													}
												}
											}
										}
									}
								}
							}
						}
					}
				}
			}
		}
	}
	JOINT LeftUpLeg
	{
		OFFSET 13.026900 -6.336304 -1.092800
		CHANNELS 3 Xrotation Yrotation Zrotation
		JOINT LeftLeg
		{
			OFFSET 0.524474 -46.096886 9.782700
			CHANNELS 3 Xrotation Yrotation Zrotation
			JOINT LeftFoot
			{
				OFFSET -0.524474 -53.427422 -12.948200
				CHANNELS 3 Xrotation Yrotation Zrotation
				JOINT LeftToeBase
				{
					OFFSET 0.192200 -14.009700 16.364100
					CHANNELS 3 Xrotation Yrotation Zrotation
					JOINT LeftToe_End
					{
						OFFSET -1.784700 -0.561700 9.474800
						CHANNELS 3 Xrotation Yrotation Zrotation
						End Site
						{
							OFFSET 0.000000 0.000000 0.000000
						}
					}
				}
			}
		}
	}
	JOINT RightUpLeg
	{
		OFFSET -12.883000 -6.336304 -1.092800
		CHANNELS 3 Xrotation Yrotation Zrotation
		JOINT RightLeg
		{
			OFFSET -0.524587 -46.096825 9.782800
			CHANNELS 3 Xrotation Yrotation Zrotation
			JOINT RightFoot
			{
				OFFSET 0.524587 -53.427383 -12.948300
				CHANNELS 3 Xrotation Yrotation Zrotation
				JOINT RightToeBase
				{
					OFFSET -0.192200 -14.009700 16.364100
					CHANNELS 3 Xrotation Yrotation Zrotation
					JOINT RightToe_End
					{
						OFFSET 1.784700 -0.561700 9.474800
						CHANNELS 3 Xrotation Yrotation Zrotation
						End Site
						{
							OFFSET 0.000000 0.000000 0.000000
						}
					}
				}
			}
		}
	}
}
MOTION
Frames: 4
Frame Time: 0.016667
0.356327 118.051880 -0.823818 2.912920 -29.006543 0.903449 7.837679 -0.306450 -2.400360 1.099253 -0.880569 2.383463 0.000000 0.000000 0.000000 1.108680 -0.590453 2.446366 -3.842070 18.019057 -6.496396 -6.332477 13.021551 0.301482 0.000000 0.000000 -0.000000 -0.057390 -8.759444 -0.061011 0.000000 0.000000 0.000000 -55.249755 0.330146 -41.449915 11.586052 -65.829520 13.007257 -50.191184 12.353354 4.611958 17.542470 -5.723961 -12.930223 10.850491 26.127751 8.644824 20.926955 51.115862 0.218788 -0.000001 -0.000001 0.000003 13.974937 1.202171 -55.004330 0.370816 1.161729 -65.441893 1.983330 2.148307 -57.646332 -0.000000 0.000001 -0.000001 7.504730 1.174482 -63.778517 1.807843 1.475672 -64.567916 0.130360 -0.912269 -43.272489 0.000000 0.000001 0.000000 8.574326 2.179127 -75.148999 -0.207643 1.009268 -57.855056 0.443124 1.742184 -53.581270 0.000000 -0.000001 -0.000000 10.030105 13.637069 -84.750244 0.877113 0.062322 -64.595524 1.141269 1.253129 -55.016296 0.000000 -0.000000 -0.000002 4.849285 7.760150 5.560449 0.000000 0.000000 0.000000 -0.933508 -2.176877 61.845649 11.299284 18.943446 -3.987510 -0.459218 6.620148 5.830122 15.788508 -2.734474 -17.205865 -2.198340 -31.113561 7.361242 -6.566798 -4.138125 2.407570 0.000000 0.000000 -0.000000 2.374670 -3.640936 8.487439 -2.147347 -2.473148 18.673266 -1.903007 -4.807335 14.173845 -0.000001 0.000000 -0.000000 -1.990500 -5.687066 13.662152 0.282189 -5.088231 26.988304 -0.665800 -1.219824 16.125786 -0.000000 0.000000 -0.000001 -3.248699 -8.544121 11.772727 4.043114 -4.063248 33.263626 2.099112 -3.161145 15.593370 0.000000 -0.000000 -0.000002 -6.473322 -11.333584 23.262805 10.715335 -2.558930 34.822876 6.414161 -3.079530 15.311010 0.000000 -0.000000 -0.000002 -15.842166 18.227367 11.840214 13.988031 12.901098 -0.955968 -0.258361 -3.828297 -5.797969 -0.131854 -0.014308 -0.311713 -0.000000 -0.000000 0.000000 -7.710467 -1.705098 -8.156860 10.301064 9.438677 0.799110 -5.653112 -0.758397 6.749844 -1.288156 -0.019884 0.149893 -0.000000 0.000001 0.000000 
0.451105 117.954300 -0.970294 2.958570 -28.879208 0.883178 7.804050 -0.305086 -2.405307 1.074050 -0.871352 2.364665 0.000000 0.000000 0.000000 1.083488 -0.588034 2.427852 -3.746777 18.050071 -6.586955 -6.429083 13.000707 0.448107 -0.000000 0.000000 -0.000000 -0.004171 -8.315568 -0.161323 0.000000 0.000000 0.000000 -55.335273 0.717927 -41.094820 10.897190 -65.775412 12.310847 -50.186143 12.360842 4.470042 17.542465 -5.723970 -12.930233 10.824667 26.057629 8.641498 21.008718 51.257452 0.185766 0.000001 -0.000001 -0.000003 13.985137 1.290449 -55.047380 0.371050 1.161925 -65.457535 1.983352 2.148307 -57.646325 -0.000000 -0.000001 -0.000002 7.465912 1.197222 -63.754707 1.806406 1.476390 -64.514238 0.129848 -0.913211 -43.213265 0.000000 0.000001 -0.000000 8.571872 2.201341 -75.001283 -0.208879 1.005547 -57.694546 0.442393 1.741630 -53.532212 0.000000 -0.000001 -0.000001 9.971798 13.637653 -84.708389 0.873409 0.061173 -64.420746 1.142990 1.253274 -55.084864 -0.000000 0.000000 0.000000 4.851983 7.811876 5.709652 0.000000 0.000000 0.000000 -0.844146 -2.132279 61.674621 11.420385 18.937652 -4.006104 -0.452337 6.527040 5.826795 15.788512 -2.734474 -17.205865 -2.106416 -31.245653 7.373518 -6.447846 -4.383505 2.353867 -0.000002 -0.000003 0.000001 2.374295 -3.644131 8.645120 -2.147457 -2.473288 18.952867 -1.903163 -4.809004 14.453392 -0.000000 0.000000 -0.000002 -1.989614 -5.689719 13.819819 0.282328 -5.090149 27.267995 -0.665299 -1.219981 16.405413 -0.000000 0.000001 -0.000001 -3.249580 -8.547458 11.930086 4.042380 -4.063375 33.543213 2.100194 -3.161188 15.873049 -0.000001 0.000001 -0.000004 -6.473357 -11.335256 23.420411 10.719494 -2.558895 35.102716 6.414185 -3.079652 15.590602 -0.000000 0.000000 -0.000000 -16.212110 18.186779 11.982962 14.346505 13.434460 -0.919025 -0.324448 -4.521252 -5.850900 -0.131845 -0.014306 -0.311712 -0.000000 0.000000 0.000000 -7.984263 -1.702802 -8.134400 10.626494 9.241494 0.761116 -5.755269 -0.756385 6.758951 -1.297532 -0.018807 0.101844 0.000000 0.000001 0.000000 
0.558820 117.854248 -1.104708 3.001906 -28.730607 0.852399 7.767014 -0.296038 -2.398241 1.051471 -0.856363 2.346642 0.000000 0.000000 0.000000 1.060734 -0.578900 2.409569 -4.035127 18.103340 -6.236031 -6.261313 13.166570 0.315301 -0.000000 -0.000000 0.000000 -0.095205 -7.833561 -0.261094 0.000000 0.000000 0.000000 -55.289063 1.044017 -40.597545 10.451434 -65.790417 11.849221 -50.183831 12.334665 4.429967 17.542467 -5.723982 -12.930214 10.824670 26.057679 8.641526 21.008716 51.257397 0.185761 -0.000000 -0.000002 0.000001 13.985153 1.290558 -55.047332 0.371059 1.161939 -65.457473 1.983363 2.148297 -57.646353 0.000000 -0.000001 -0.000000 7.465875 1.197204 -63.754714 1.806394 1.476406 -64.514169 0.129861 -0.913215 -43.213173 0.000000 0.000001 -0.000001 8.571859 2.201315 -75.001324 -0.208884 1.005575 -57.694601 0.442383 1.741614 -53.532243 -0.000000 0.000000 -0.000001 9.971802 13.637637 -84.708430 0.873412 0.061191 -64.421600 1.142990 1.253266 -55.084847 0.000000 -0.000000 -0.000002 4.852107 7.875472 5.834439 0.000000 0.000000 0.000000 -0.731461 -2.101491 61.529985 11.542495 18.958858 -4.028565 -0.441496 6.372634 5.804630 15.788508 -2.734475 -17.205868 -2.008251 -31.386396 7.386912 -6.321376 -4.645018 2.297032 -0.000001 -0.000001 0.000003 2.373891 -3.647528 8.813125 -2.147528 -2.473426 19.250794 -1.903372 -4.810731 14.751160 -0.000000 0.000000 -0.000002 -1.988695 -5.692532 13.987959 0.282493 -5.092161 27.565998 -0.664720 -1.220163 16.703363 -0.000001 0.000001 -0.000002 -3.250511 -8.551008 12.097790 4.041628 -4.063503 33.840872 2.101352 -3.161262 16.171033 0.000000 -0.000000 0.000003 -6.473472 -11.337011 23.588159 10.719574 -2.559002 35.400717 6.414233 -3.079785 15.888548 -0.000000 0.000000 0.000001 -16.596007 18.173561 12.132223 14.719954 13.965501 -0.881770 -0.404979 -5.263255 -5.896082 -0.131842 -0.014304 -0.311712 -0.000000 0.000000 0.000000 -8.241836 -1.761602 -8.093312 10.939064 9.017783 0.680405 -5.860514 -0.739022 6.812952 -1.322981 -0.015841 -0.028570 0.000000 -0.000001 -0.000000 
0.685021 117.735275 -1.217901 3.035183 -28.522286 0.787715 7.721632 -0.271629 -2.355359 1.037692 -0.825894 2.332715 0.000000 0.000000 0.000000 1.046382 -0.551330 2.393829 -4.158289 18.277610 -6.094377 -6.212597 13.365645 0.304792 0.000000 0.000000 -0.000000 -0.122211 -7.332438 -0.371028 0.000000 0.000000 0.000000 -55.212958 1.531643 -40.105617 9.829967 -65.922609 11.210625 -50.174576 12.301566 4.331362 17.542477 -5.723970 -12.930201 10.824835 26.058119 8.641541 21.008501 51.257011 0.185838 0.000003 -0.000002 0.000000 13.985211 1.291125 -55.047080 0.371060 1.161938 -65.457002 1.983343 2.148293 -57.646339 0.000001 0.000001 0.000000 7.465686 1.197321 -63.754516 1.806379 1.476428 -64.513978 0.129862 -0.913233 -43.212852 0.000000 0.000000 0.000000 8.571873 2.201187 -75.001604 -0.208888 1.005566 -57.694908 0.442392 1.741614 -53.532519 -0.000000 0.000003 -0.000001 9.972055 13.637641 -84.708682 0.873463 0.061193 -64.423068 1.143010 1.253273 -55.085247 0.000000 0.000000 -0.000000 4.844678 7.972234 5.880416 0.000000 0.000000 0.000000 -0.550610 -2.122587 61.472836 11.675097 19.081204 -4.071060 -0.420800 6.034998 5.735724 15.788508 -2.734475 -17.205868 -1.904650 -31.534570 7.401393 -6.188443 -4.920555 2.237832 0.000000 -0.000002 0.000001 2.373494 -3.651110 8.990280 -2.147580 -2.473563 19.564578 -1.903528 -4.812504 15.064751 -0.000001 -0.000000 -0.000000 -1.987685 -5.695488 14.164825 0.282657 -5.094232 27.879640 -0.664085 -1.220346 17.016996 0.000001 0.000000 0.000001 -3.251470 -8.554750 12.274419 4.040895 -4.063624 34.154679 2.102610 -3.161313 16.484737 -0.000000 -0.000000 0.000002 -6.473506 -11.338847 23.764962 10.719654 -2.559124 35.714342 6.414262 -3.079917 16.202220 -0.000000 -0.000000 -0.000001 -17.058804 18.189274 12.201330 15.118251 13.129660 -0.943123 -0.485307 -4.716738 -5.684665 -0.131856 -0.014311 -0.311712 0.000000 -0.000000 -0.000000 -8.481684 -1.868520 -8.028782 11.275928 8.736305 0.564892 -5.996416 -0.714228 6.913988 -1.360485 -0.015833 -0.220852 -0.000000 0.000003 0.000000 
